<?xml version="1.0" encoding="UTF-8" standalone="no"?>
<svg width="453px" height="514px" viewBox="0 0 453 514" version="1.1" xmlns="http://www.w3.org/2000/svg" xmlns:xlink="http://www.w3.org/1999/xlink">
    <!-- Generator: Sketch 39.1 (31720) - http://www.bohemiancoding.com/sketch -->
    <title>logo</title>
    <desc>Created with Sketch.</desc>
    <defs></defs>
    <g id="Page-1" stroke="none" stroke-width="1" fill="none" fill-rule="evenodd">
        <g id="logo">
            <rect id="Rectangle-1" fill="#1B1B1B" x="0" y="0" width="453" height="453.803352"></rect>
            <polyline id="Triangle-1" fill="#1B1B1B" points="204.206888 408.723549 288.693528 450.003513 205.24332 514 204.206888 408.723549"></polyline>
            <path d="M75.352,64.7906966 L75.352,122.216355 L57.91,122.216355 L57.91,64.7906966 L37.51,64.7906966 L37.51,49.8722871 L95.752,49.8722871 L95.752,64.7906966 L75.352,64.7906966 Z M186.417999,122.216355 L180.807999,108.013212 L152.859999,108.013212 L147.555999,122.216355 L128.583999,122.216355 L158.877999,49.8722871 L175.809999,49.8722871 L205.797999,122.216355 L186.417999,122.216355 Z M167.037999,69.1844748 L157.857999,94.0144304 L176.013999,94.0144304 L167.037999,69.1844748 Z M251.685998,122.216355 L251.685998,49.8722871 L269.229998,49.8722871 L269.229998,106.991403 L297.177998,106.991403 L297.177998,122.216355 L251.685998,122.216355 Z M389.373997,122.216355 L362.547997,88.905386 L362.343997,88.905386 L362.343997,122.216355 L345.207997,122.216355 L345.207997,49.8722871 L362.343997,49.8722871 L362.343997,79.3003826 L362.649997,79.3003826 L388.455997,49.8722871 L410.283997,49.8722871 L379.173997,83.1832563 L412.119997,122.216355 L389.373997,122.216355 Z M83.92,222.710256 C83.92,225.571335 83.5970032,228.568611 82.951,231.702174 C82.3049968,234.835737 81.1150087,237.713803 79.381,240.336459 C77.6469913,242.959115 75.2330155,245.121922 72.139,246.824945 C69.0449845,248.527969 65.0500245,249.379468 60.154,249.379468 C54.0339694,249.379468 48.9340204,247.79568 44.854,244.628056 C40.7739796,241.460433 38.0540068,237.390268 36.694,232.41744 L52.096,227.206215 C52.5720024,229.113601 53.4389937,230.646299 54.697,231.804355 C55.9550063,232.962411 57.5019908,233.54143 59.338,233.54143 C62.1940143,233.54143 64.0809954,232.553691 64.999,230.578184 C65.9170046,228.602677 66.376,226.014121 66.376,222.812437 L66.376,175.093963 L83.92,175.093963 L83.92,222.710256 Z M176.421999,193.895246 C174.925991,191.98786 172.971011,190.472192 170.556999,189.348196 C168.142987,188.224201 165.81401,187.662212 163.569999,187.662212 C162.413993,187.662212 161.241005,187.764392 160.050999,187.968754 C158.860993,188.173117 157.790004,188.564807 156.837999,189.143835 C155.885994,189.722862 155.087002,190.472181 154.440999,191.391814 C153.794996,192.311447 153.471999,193.486515 153.471999,194.917055 C153.471999,196.143231 153.726996,197.16503 154.236999,197.982481 C154.747001,198.799932 155.494994,199.515192 156.480999,200.12828 C157.467004,200.741368 158.639992,201.303358 159.999999,201.814265 C161.360006,202.325172 162.88999,202.853101 164.589999,203.398068 C167.038011,204.215519 169.587986,205.118108 172.239999,206.105862 C174.892012,207.093615 177.305988,208.404924 179.481999,210.039826 C181.65801,211.674728 183.459992,213.701296 184.887999,216.119589 C186.316006,218.537882 187.029999,221.552188 187.029999,225.162597 C187.029999,229.317974 186.265007,232.911299 184.734999,235.942681 C183.204991,238.974062 181.148012,241.477469 178.563999,243.452976 C175.979986,245.428483 173.022016,246.893061 169.689999,247.846754 C166.357982,248.800447 162.924017,249.277287 159.387999,249.277287 C154.219973,249.277287 149.222023,248.374698 144.393999,246.569493 C139.565975,244.764288 135.554015,242.192762 132.357999,238.854836 L143.781999,227.206215 C145.550008,229.386085 147.878984,231.208292 150.768999,232.672892 C153.659013,234.137493 156.531985,234.869782 159.387999,234.869782 C160.680005,234.869782 161.937993,234.733542 163.161999,234.461058 C164.386005,234.188574 165.456994,233.745795 166.374999,233.132706 C167.293004,232.519618 168.023996,231.702179 168.567999,230.680365 C169.112002,229.658551 169.383999,228.432393 169.383999,227.001853 C169.383999,225.639435 169.044002,224.481396 168.363999,223.527703 C167.683996,222.57401 166.715005,221.705481 165.456999,220.92209 C164.198993,220.1387 162.635008,219.423441 160.764999,218.776292 C158.89499,218.129143 156.770011,217.430914 154.389999,216.681584 C152.077987,215.932253 149.81701,215.046695 147.606999,214.024881 C145.396988,213.003067 143.425008,211.691758 141.690999,210.090916 C139.95699,208.490075 138.563004,206.548657 137.508999,204.266606 C136.454994,201.984555 135.927999,199.208668 135.927999,195.938864 C135.927999,191.919729 136.743991,188.479673 138.375999,185.618594 C140.008007,182.757515 142.149986,180.407378 144.801999,178.568113 C147.454012,176.728848 150.445982,175.383479 153.777999,174.531968 C157.110016,173.680456 160.475982,173.254707 163.875999,173.254707 C167.956019,173.254707 172.120978,174.004026 176.370999,175.502686 C180.62102,177.001347 184.343983,179.215244 187.539999,182.144444 L176.421999,193.895246 Z" id="TALK" fill="#FFFFFF"></path>
            <rect id="Rectangle-1" fill="#1B1B1B" x="0" y="0" width="453" height="453.803352"></rect>
            <polyline id="Triangle-1" fill="#1B1B1B" points="204.206888 408.723549 288.693528 450.003513 205.24332 514 204.206888 408.723549"></polyline>
            <path d="M75.352,64.7906966 L75.352,122.216355 L57.91,122.216355 L57.91,64.7906966 L37.51,64.7906966 L37.51,49.8722871 L95.752,49.8722871 L95.752,64.7906966 L75.352,64.7906966 Z M186.417999,122.216355 L180.807999,108.013212 L152.859999,108.013212 L147.555999,122.216355 L128.583999,122.216355 L158.877999,49.8722871 L175.809999,49.8722871 L205.797999,122.216355 L186.417999,122.216355 Z M167.037999,69.1844748 L157.857999,94.0144304 L176.013999,94.0144304 L167.037999,69.1844748 Z M251.685998,122.216355 L251.685998,49.8722871 L269.229998,49.8722871 L269.229998,106.991403 L297.177998,106.991403 L297.177998,122.216355 L251.685998,122.216355 Z M389.373997,122.216355 L362.547997,88.905386 L362.343997,88.905386 L362.343997,122.216355 L345.207997,122.216355 L345.207997,49.8722871 L362.343997,49.8722871 L362.343997,79.3003826 L362.649997,79.3003826 L388.455997,49.8722871 L410.283997,49.8722871 L379.173997,83.1832563 L412.119997,122.216355 L389.373997,122.216355 Z M83.92,222.710256 C83.92,225.571335 83.5970032,228.568611 82.951,231.702174 C82.3049968,234.835737 81.1150087,237.713803 79.381,240.336459 C77.6469913,242.959115 75.2330155,245.121922 72.139,246.824945 C69.0449845,248.527969 65.0500245,249.379468 60.154,249.379468 C54.0339694,249.379468 48.9340204,247.79568 44.854,244.628056 C40.7739796,241.460433 38.0540068,237.390268 36.694,232.41744 L52.096,227.206215 C52.5720024,229.113601 53.4389937,230.646299 54.697,231.804355 C55.9550063,232.962411 57.5019908,233.54143 59.338,233.54143 C62.1940143,233.54143 64.0809954,232.553691 64.999,230.578184 C65.9170046,228.602677 66.376,226.014121 66.376,222.812437 L66.376,175.093963 L83.92,175.093963 L83.92,222.710256 Z M176.421999,193.895246 C174.925991,191.98786 172.971011,190.472192 170.556999,189.348196 C168.142987,188.224201 165.81401,187.662212 163.569999,187.662212 C162.413993,187.662212 161.241005,187.764392 160.050999,187.968754 C158.860993,188.173117 157.790004,188.564807 156.837999,189.143835 C155.885994,189.722862 155.087002,190.472181 154.440999,191.391814 C153.794996,192.311447 153.471999,193.486515 153.471999,194.917055 C153.471999,196.143231 153.726996,197.16503 154.236999,197.982481 C154.747001,198.799932 155.494994,199.515192 156.480999,200.12828 C157.467004,200.741368 158.639992,201.303358 159.999999,201.814265 C161.360006,202.325172 162.88999,202.853101 164.589999,203.398068 C167.038011,204.215519 169.587986,205.118108 172.239999,206.105862 C174.892012,207.093615 177.305988,208.404924 179.481999,210.039826 C181.65801,211.674728 183.459992,213.701296 184.887999,216.119589 C186.316006,218.537882 187.029999,221.552188 187.029999,225.162597 C187.029999,229.317974 186.265007,232.911299 184.734999,235.942681 C183.204991,238.974062 181.148012,241.477469 178.563999,243.452976 C175.979986,245.428483 173.022016,246.893061 169.689999,247.846754 C166.357982,248.800447 162.924017,249.277287 159.387999,249.277287 C154.219973,249.277287 149.222023,248.374698 144.393999,246.569493 C139.565975,244.764288 135.554015,242.192762 132.357999,238.854836 L143.781999,227.206215 C145.550008,229.386085 147.878984,231.208292 150.768999,232.672892 C153.659013,234.137493 156.531985,234.869782 159.387999,234.869782 C160.680005,234.869782 161.937993,234.733542 163.161999,234.461058 C164.386005,234.188574 165.456994,233.745795 166.374999,233.132706 C167.293004,232.519618 168.023996,231.702179 168.567999,230.680365 C169.112002,229.658551 169.383999,228.432393 169.383999,227.001853 C169.383999,225.639435 169.044002,224.481396 168.363999,223.527703 C167.683996,222.57401 166.715005,221.705481 165.456999,220.92209 C164.198993,220.1387 162.635008,219.423441 160.764999,218.776292 C158.89499,218.129143 156.770011,217.430914 154.389999,216.681584 C152.077987,215.932253 149.81701,215.046695 147.606999,214.024881 C145.396988,213.003067 143.425008,211.691758 141.690999,210.090916 C139.95699,208.490075 138.563004,206.548657 137.508999,204.266606 C136.454994,201.984555 135.927999,199.208668 135.927999,195.938864 C135.927999,191.919729 136.743991,188.479673 138.375999,185.618594 C140.008007,182.757515 142.149986,180.407378 144.801999,178.568113 C147.454012,176.728848 150.445982,175.383479 153.777999,174.531968 C157.110016,173.680456 160.475982,173.254707 163.875999,173.254707 C167.956019,173.254707 172.120978,174.004026 176.370999,175.502686 C180.62102,177.001347 184.343983,179.215244 187.539999,182.144444 L176.421999,193.895246 Z" id="TALK" fill="#FFFFFF"></path>
        </g>
    </g>
</svg>